<svg width="240" height="60" viewBox="0 0 240 60" fill="none" xmlns="http://www.w3.org/2000/svg">
<path fill-rule="evenodd" clip-rule="evenodd" d="M81 32.1952C81 32.9976 70.7228 51 43.0232 51C15.3235 51 5 32.8942 5 32.1277C5 31.614 9.57613 23.4547 20.971 18.1285L20.9708 25.0544C15.2008 28.2603 12.0217 31.7015 12.0217 32.1015C12.0217 32.8693 23.7246 44.8925 43.0199 44.8925C62.3152 44.8925 73.9783 32.9313 73.9783 32.1482C73.9783 31.74 70.8016 28.2808 65.0296 25.0625L65.0293 18.1272C76.4317 23.4651 81 31.657 81 32.1952Z" fill="#12D8AB"/>
<path fill-rule="evenodd" clip-rule="evenodd" d="M61.4493 47.3321V9L61.4306 9.01349L61.4248 9.01376L60.6739 9.55926L42.9634 22.3284L26.1005 10.1218L24.5753 9.01376L24.5695 9.01349L24.5508 9V47.3321H30.3334V20.3262L44.0677 30.2511L44.0806 30.2406L44.6233 30.631C44.7211 30.6932 44.8151 30.7608 44.9048 30.8335L44.9423 30.8609L44.9407 30.8631C45.6059 31.4187 46.0291 32.2543 46.0291 33.1888C46.0291 34.8617 44.6729 36.2178 43.0001 36.2178C41.3272 36.2178 39.9711 34.8617 39.9711 33.1888C39.9711 32.6399 40.1171 32.1251 40.3724 31.6812L35.6392 28.3432C34.7222 29.7334 34.1885 31.3988 34.1885 33.1888C34.1885 38.0553 38.1336 42.0004 43.0001 42.0004C47.8666 42.0004 51.8117 38.0553 51.8117 33.1888C51.8117 30.5026 50.6097 28.0971 48.7142 26.4809L55.6667 20.8395V47.3321H61.4493Z" fill="#12D8AB"/>
<path d="M89.4399 46V16.2H97.1599L101.88 29.08C102.48 30.8 102.96 32.68 103.52 34.48H103.72C104.32 32.68 104.8 30.8 105.36 29.08L109.92 16.2H117.68V46H111.16V35.8C111.16 32.84 111.72 28.4 112.12 25.48H111.92L109.44 32.6L105.44 43.48H101.52L97.4799 32.6L95.0799 25.48H94.9199C95.2799 28.4 95.8399 32.84 95.8399 35.8V46H89.4399Z" fill="#12D8AB"/>
<path d="M129.558 46.56C126.598 46.56 123.118 45.28 120.798 43.36L123.958 38.92C126.038 40.48 127.918 41.32 129.718 41.32C131.598 41.32 132.398 40.64 132.398 39.52C132.398 38.16 130.198 37.52 127.878 36.6C125.158 35.52 122.078 33.68 122.078 29.88C122.078 25.6 125.558 22.68 130.878 22.68C134.438 22.68 137.078 24.12 138.998 25.6L135.838 29.84C134.198 28.68 132.598 27.92 131.118 27.92C129.478 27.92 128.718 28.48 128.718 29.56C128.718 30.92 130.678 31.44 133.038 32.28C135.878 33.36 139.038 35 139.038 39.12C139.038 43.32 135.758 46.56 129.558 46.56Z" fill="#12D8AB"/>
<path d="M147.709 46.56C143.509 46.56 140.949 43.44 140.949 39.64C140.949 34.84 144.709 32.24 153.589 31.28C153.429 29.44 152.469 28.36 150.149 28.36C148.349 28.36 146.469 29.08 144.189 30.36L141.709 25.68C144.709 23.88 147.949 22.68 151.509 22.68C157.389 22.68 160.709 25.96 160.709 33.08V46H154.909L154.429 43.72H154.229C152.349 45.4 150.229 46.56 147.709 46.56ZM150.149 41.04C151.589 41.04 152.549 40.36 153.589 39.24V35.6C149.149 36.16 147.709 37.48 147.709 39.08C147.709 40.4 148.669 41.04 150.149 41.04Z" fill="#12D8AB"/>
<path d="M166.207 46V22.36C166.207 17.56 168.487 13.48 174.807 13.48C176.807 13.48 178.447 13.88 179.447 14.24L178.167 19.52C177.447 19.2 176.607 19.04 175.847 19.04C174.287 19.04 173.326 19.88 173.326 22.16V46H166.207ZM163.167 28.8V23.52L166.646 23.24H177.367V28.8H163.167Z" fill="#12D8AB"/>
<path d="M189.322 46.56C182.762 46.56 177.722 42.16 177.722 34.6C177.722 27.24 183.042 22.68 188.522 22.68C195.082 22.68 198.282 27.44 198.282 33.64C198.282 34.92 198.122 36.16 197.962 36.72H184.602C185.242 39.84 187.402 41.12 190.282 41.12C191.922 41.12 193.442 40.64 195.082 39.68L197.442 43.96C195.082 45.64 191.962 46.56 189.322 46.56ZM184.482 32.04H192.242C192.242 29.8 191.242 28.12 188.642 28.12C186.682 28.12 184.962 29.36 184.482 32.04Z" fill="#12D8AB"/>
<path d="M208.11 46.56C203.23 46.56 201.63 43.36 201.63 38.6V14.04H208.75V38.84C208.75 40.36 209.43 40.8 209.99 40.8C210.23 40.8 210.39 40.8 210.79 40.72L211.63 45.96C210.87 46.28 209.71 46.56 208.11 46.56Z" fill="#12D8AB"/>
<path d="M216.551 54.76C215.071 54.76 214.151 54.6 213.191 54.32L214.471 48.92C214.871 49 215.471 49.2 215.991 49.2C218.151 49.2 219.271 48.08 219.791 46.48L220.111 45.32L211.391 23.24H218.551L221.591 32.68C222.271 34.76 222.751 36.88 223.351 39.12H223.551C223.991 36.96 224.511 34.84 225.031 32.68L227.671 23.24H234.471L226.631 46.04C224.431 51.88 221.951 54.76 216.551 54.76Z" fill="#12D8AB"/>
</svg>
