<svg width="18" height="18" viewBox="0 0 18 18" fill="none" xmlns="http://www.w3.org/2000/svg">
<g id="instagram">
<mask id="mask0_10272_1283" style="mask-type:luminance" maskUnits="userSpaceOnUse" x="0" y="0" width="18" height="18">
<path id="Clip 2" fill-rule="evenodd" clip-rule="evenodd" d="M0 0H18V18H0V0Z" fill="white"/>
</mask>
<g mask="url(#mask0_10272_1283)">
<path id="Fill 1" fill-rule="evenodd" clip-rule="evenodd" d="M8.99942 6.23828C7.47903 6.23828 6.23828 7.47906 6.23828 8.99948C6.23828 10.5198 7.47903 11.7606 8.99942 11.7606C10.5198 11.7606 11.7606 10.5198 11.7606 8.99948C11.7606 7.47906 10.5198 6.23828 8.99942 6.23828ZM17.2798 9.00074C17.2798 7.85734 17.2901 6.72427 17.226 5.58288C17.1617 4.25723 16.8593 3.08064 15.8899 2.11122C14.9185 1.13975 13.744 0.839378 12.4183 0.775217C11.2749 0.710964 10.1419 0.721318 9.0006 0.721318C7.8572 0.721318 6.72415 0.710964 5.58279 0.775217C4.25719 0.839378 3.0806 1.14179 2.11119 2.11122C1.13974 3.08268 0.839376 4.25723 0.775216 5.58288C0.710965 6.7263 0.721318 7.85935 0.721318 9.00074C0.721318 10.142 0.710965 11.2771 0.775216 12.4185C0.839376 13.7442 1.14178 14.9208 2.11119 15.8902C3.08264 16.8617 4.25719 17.162 5.58279 17.2263C6.72619 17.2904 7.85924 17.2801 9.0006 17.2801C10.144 17.2801 11.2769 17.2904 12.4183 17.2263C13.744 17.162 14.9205 16.8596 15.8899 15.8902C16.8614 14.9187 17.1617 13.7442 17.226 12.4185C17.2923 11.2771 17.2798 10.1442 17.2798 9.00074ZM8.99837 13.2489C6.6474 13.2489 4.75 11.3515 4.75 9.00047C4.75 6.64939 6.6474 4.75195 8.99837 4.75195C11.3494 4.75195 13.2467 6.64939 13.2467 9.00047C13.2467 11.3515 11.3494 13.2489 8.99837 13.2489ZM13.4218 5.57037C12.873 5.57037 12.4297 5.12709 12.4297 4.57811C12.4297 4.02925 12.873 3.58594 13.4218 3.58594C13.9708 3.58594 14.4141 4.02925 14.4141 4.57811C14.4144 4.84139 14.3099 5.09399 14.1238 5.28011C13.9377 5.4662 13.6851 5.57065 13.4218 5.57037Z" fill="#858D9A"/>
</g>
</g>
</svg>
