<svg width="18" height="18" viewBox="0 0 18 18" fill="none" xmlns="http://www.w3.org/2000/svg">
<path fill-rule="evenodd" clip-rule="evenodd" d="M18 3.38016C17.338 3.65849 16.6177 3.85867 15.8758 3.93669C16.6415 3.49193 17.2234 2.78998 17.4982 1.95521C16.7908 2.36632 15.9904 2.66769 15.1575 2.82373C14.4827 2.12174 13.5243 1.6875 12.4622 1.6875C10.418 1.6875 8.77395 3.30224 8.77395 5.28372C8.77395 5.56195 8.80861 5.84028 8.8648 6.108C5.8039 5.95195 3.07391 4.52701 1.25896 2.34522C0.938802 2.88065 0.757121 3.49193 0.757121 4.16017C0.757121 5.40807 1.40819 6.50849 2.40118 7.15561C1.7954 7.13245 1.2244 6.96589 0.733352 6.69818V6.74245C0.733352 8.48996 2.00096 9.93818 3.69042 10.2713C3.38106 10.3492 3.05014 10.3934 2.71912 10.3934C2.47903 10.3934 2.25192 10.3703 2.02262 10.3387C2.48979 11.7636 3.85044 12.7987 5.47074 12.8324C4.20313 13.8 2.61528 14.3692 0.891266 14.3692C0.581901 14.3692 0.296386 14.3586 0 14.3249C1.63538 15.3472 3.57572 15.9375 5.66542 15.9375C12.4492 15.9375 16.1613 10.461 16.1613 5.7074C16.1613 5.55146 16.1613 5.39542 16.1505 5.23948C16.8686 4.72719 17.4982 4.09274 18 3.38016Z" fill="#858D9A"/>
</svg>
